REM DIRINDEX 1\6,1\2\7,1\2\8,1\2\9,1\3\10,1\3\11,1\4\12,1\4\13,1\4\14,1\5\15,1\5\16,1\5\17
REM DIRNAME cjc040,folder01,folder02,folder03,folder04,folder05,folder06,folder07,folder08,folder09,folder10,folder11,folder12,folder13,folder14,folder15,folder16
TITLE ""
FILE "P2Q_t2_0686-0703.mp3" MP3
  TRACK 01 AUDIO
    TITLE "7:cjc040_5889"
    INDEX 01 00:00:00
  TRACK 02 AUDIO
    TITLE "0:"
    INDEX 01 00:01:03
  TRACK 03 AUDIO
    TITLE "8:cjc040_5890"
    INDEX 01 00:01:60
  TRACK 04 AUDIO
    TITLE "0:"
    INDEX 01 00:04:46
  TRACK 05 AUDIO
    TITLE "9:cjc040_5891"
    INDEX 01 00:05:18
  TRACK 06 AUDIO
    TITLE "0:"
    INDEX 01 00:06:39
  TRACK 07 AUDIO
    TITLE "7:cjc040_5892"
    INDEX 01 00:08:21
  TRACK 08 AUDIO
    TITLE "0:"
    INDEX 01 00:09:36
  TRACK 09 AUDIO
    TITLE "8:cjc040_5893"
    INDEX 01 00:10:18
  TRACK 10 AUDIO
    TITLE "0:"
    INDEX 01 00:12:54
  TRACK 11 AUDIO
    TITLE "9:cjc040_5894"
    INDEX 01 00:13:24
  TRACK 12 AUDIO
    TITLE "0:"
    INDEX 01 00:14:39
  TRACK 13 AUDIO
    TITLE "7:cjc040_5895"
    INDEX 01 00:16:20
  TRACK 14 AUDIO
    TITLE "0:"
    INDEX 01 00:17:49
  TRACK 15 AUDIO
    TITLE "8:cjc040_5896"
    INDEX 01 00:18:23
  TRACK 16 AUDIO
    TITLE "0:"
    INDEX 01 00:19:40
  TRACK 17 AUDIO
    TITLE "9:cjc040_5897"
    INDEX 01 00:20:20
  TRACK 18 AUDIO
    TITLE "0:"
    INDEX 01 00:21:45
  TRACK 19 AUDIO
    TITLE "7:cjc040_5898"
    INDEX 01 00:23:34
  TRACK 20 AUDIO
    TITLE "0:"
    INDEX 01 00:24:33
  TRACK 21 AUDIO
    TITLE "8:cjc040_5899"
    INDEX 01 00:25:15
  TRACK 22 AUDIO
    TITLE "0:"
    INDEX 01 00:27:61
  TRACK 23 AUDIO
    TITLE "9:cjc040_5900"
    INDEX 01 00:28:41
  TRACK 24 AUDIO
    TITLE "0:"
    INDEX 01 00:29:42
  TRACK 25 AUDIO
    TITLE "7:cjc040_5901"
    INDEX 01 00:31:26
  TRACK 26 AUDIO
    TITLE "0:"
    INDEX 01 00:32:43
  TRACK 27 AUDIO
    TITLE "8:cjc040_5902"
    INDEX 01 00:33:19
  TRACK 28 AUDIO
    TITLE "0:"
    INDEX 01 00:35:43
  TRACK 29 AUDIO
    TITLE "9:cjc040_5903"
    INDEX 01 00:36:23
  TRACK 30 AUDIO
    TITLE "0:"
    INDEX 01 00:37:48
  TRACK 31 AUDIO
    TITLE "7:cjc040_5904"
    INDEX 01 00:39:33
  TRACK 32 AUDIO
    TITLE "0:"
    INDEX 01 00:40:30
  TRACK 33 AUDIO
    TITLE "8:cjc040_5905"
    INDEX 01 00:41:12
  TRACK 34 AUDIO
    TITLE "0:"
    INDEX 01 00:45:24
  TRACK 35 AUDIO
    TITLE "9:cjc040_5906"
    INDEX 01 00:45:73
  TRACK 36 AUDIO
    TITLE "0:"
    INDEX 01 00:47:03
  TRACK 37 AUDIO
    TITLE "7:cjc040_5907"
    INDEX 01 00:48:59
  TRACK 38 AUDIO
    TITLE "0:"
    INDEX 01 00:49:63
  TRACK 39 AUDIO
    TITLE "8:cjc040_5908"
    INDEX 01 00:50:44
  TRACK 40 AUDIO
    TITLE "0:"
    INDEX 01 00:54:66
  TRACK 41 AUDIO
    TITLE "9:cjc040_5909"
    INDEX 01 00:55:42
  TRACK 42 AUDIO
    TITLE "0:"
    INDEX 01 00:56:51
  TRACK 43 AUDIO
    TITLE "7:cjc040_5910"
    INDEX 01 00:58:36
  TRACK 44 AUDIO
    TITLE "0:"
    INDEX 01 00:59:57
  TRACK 45 AUDIO
    TITLE "8:cjc040_5911"
    INDEX 01 01:00:43
  TRACK 46 AUDIO
    TITLE "0:"
    INDEX 01 01:03:37
  TRACK 47 AUDIO
    TITLE "9:cjc040_5912"
    INDEX 01 01:04:13
  TRACK 48 AUDIO
    TITLE "0:"
    INDEX 01 01:05:34
  TRACK 49 AUDIO
    TITLE "7:cjc040_5913"
    INDEX 01 01:07:23
  TRACK 50 AUDIO
    TITLE "0:"
    INDEX 01 01:08:52
  TRACK 51 AUDIO
    TITLE "8:cjc040_5914"
    INDEX 01 01:09:30
  TRACK 52 AUDIO
    TITLE "0:"
    INDEX 01 01:11:70
  TRACK 53 AUDIO
    TITLE "9:cjc040_5915"
    INDEX 01 01:12:48
  TRACK 54 AUDIO
    TITLE "0:"
    INDEX 01 01:14:04
  TRACK 55 AUDIO
    TITLE "7:cjc040_5916"
    INDEX 01 01:15:58
  TRACK 56 AUDIO
    TITLE "0:"
    INDEX 01 01:16:69
  TRACK 57 AUDIO
    TITLE "8:cjc040_5917"
    INDEX 01 01:17:51
  TRACK 58 AUDIO
    TITLE "0:"
    INDEX 01 01:20:63
  TRACK 59 AUDIO
    TITLE "9:cjc040_5918"
    INDEX 01 01:21:41
  TRACK 60 AUDIO
    TITLE "0:"
    INDEX 01 01:22:48
  TRACK 61 AUDIO
    TITLE "7:cjc040_5919"
    INDEX 01 01:24:39
  TRACK 62 AUDIO
    TITLE "0:"
    INDEX 01 01:25:51
  TRACK 63 AUDIO
    TITLE "8:cjc040_5920"
    INDEX 01 01:26:32
  TRACK 64 AUDIO
    TITLE "0:"
    INDEX 01 01:29:09
  TRACK 65 AUDIO
    TITLE "9:cjc040_5921"
    INDEX 01 01:29:66
  TRACK 66 AUDIO
    TITLE "0:"
    INDEX 01 01:31:04
  TRACK 67 AUDIO
    TITLE "7:cjc040_5922"
    INDEX 01 01:32:62
  TRACK 68 AUDIO
    TITLE "0:"
    INDEX 01 01:34:12
  TRACK 69 AUDIO
    TITLE "8:cjc040_5923"
    INDEX 01 01:34:69
  TRACK 70 AUDIO
    TITLE "0:"
    INDEX 01 01:37:48
  TRACK 71 AUDIO
    TITLE "9:cjc040_5924"
    INDEX 01 01:38:32
  TRACK 72 AUDIO
    TITLE "0:"
    INDEX 01 01:39:63
  TRACK 73 AUDIO
    TITLE "7:cjc040_5925"
    INDEX 01 01:41:50
  TRACK 74 AUDIO
    TITLE "0:"
    INDEX 01 01:42:57
  TRACK 75 AUDIO
    TITLE "8:cjc040_5926"
    INDEX 01 01:43:39
  TRACK 76 AUDIO
    TITLE "0:"
    INDEX 01 01:44:52
  TRACK 77 AUDIO
    TITLE "9:cjc040_5927"
    INDEX 01 01:45:30
  TRACK 78 AUDIO
    TITLE "0:"
    INDEX 01 01:46:45
  TRACK 79 AUDIO
    TITLE "7:cjc040_5928"
    INDEX 01 01:48:28
  TRACK 80 AUDIO
    TITLE "0:"
    INDEX 01 01:49:69
  TRACK 81 AUDIO
    TITLE "8:cjc040_5929"
    INDEX 01 01:50:49
  TRACK 82 AUDIO
    TITLE "0:"
    INDEX 01 01:52:40
  TRACK 83 AUDIO
    TITLE "9:cjc040_5930"
    INDEX 01 01:53:20
  TRACK 84 AUDIO
    TITLE "0:"
    INDEX 01 01:54:70
  TRACK 85 AUDIO
    TITLE "7:cjc040_5931"
    INDEX 01 01:56:47
  TRACK 86 AUDIO
    TITLE "0:"
    INDEX 01 01:57:70
  TRACK 87 AUDIO
    TITLE "8:cjc040_5932"
    INDEX 01 01:58:46
  TRACK 88 AUDIO
    TITLE "0:"
    INDEX 01 02:00:55
  TRACK 89 AUDIO
    TITLE "9:cjc040_5933"
    INDEX 01 02:01:33
  TRACK 90 AUDIO
    TITLE "0:"
    INDEX 01 02:02:64
  TRACK 91 AUDIO
    TITLE "7:cjc040_5934"
    INDEX 01 02:04:47
  TRACK 92 AUDIO
    TITLE "0:"
    INDEX 01 02:05:58
  TRACK 93 AUDIO
    TITLE "8:cjc040_5935"
    INDEX 01 02:06:40
  TRACK 94 AUDIO
    TITLE "0:"
    INDEX 01 02:08:54
  TRACK 95 AUDIO
    TITLE "9:cjc040_5936"
    INDEX 01 02:09:36
  TRACK 96 AUDIO
    TITLE "0:"
    INDEX 01 02:10:51
  TRACK 97 AUDIO
    TITLE "7:cjc040_5937"
    INDEX 01 02:12:35
  TRACK 98 AUDIO
    TITLE "0:"
    INDEX 01 02:13:52
  TRACK 99 AUDIO
    TITLE "8:cjc040_5938"
    INDEX 01 02:14:30
  TRACK 100 AUDIO
    TITLE "0:"
    INDEX 01 02:15:64
  TRACK 101 AUDIO
    TITLE "9:cjc040_5939"
    INDEX 01 02:16:42
  TRACK 102 AUDIO
    TITLE "0:"
    INDEX 01 02:17:63
  TRACK 103 AUDIO
    TITLE "7:cjc040_5940"
    INDEX 01 02:19:46
  TRACK 104 AUDIO
    TITLE "0:"
    INDEX 01 02:20:65
  TRACK 105 AUDIO
    TITLE "8:cjc040_5941"
    INDEX 01 02:21:43
  TRACK 106 AUDIO
    TITLE "0:"
    INDEX 01 02:23:72
  TRACK 107 AUDIO
    TITLE "9:cjc040_5942"
    INDEX 01 02:24:47
  TRACK 108 AUDIO
    TITLE "0:"
    INDEX 01 02:25:70
